<?xml version="1.0" encoding="UTF-8" standalone="no"?>
<!-- Created with Inkscape (http://www.inkscape.org/) -->

<svg
   version="1.0"
   width="131.56599"
   height="131.56599"
   id="svg2"
   sodipodi:docname="forte_circ.svg"
   inkscape:version="1.2.2 (b0a8486541, 2022-12-01)"
   xmlns:inkscape="http://www.inkscape.org/namespaces/inkscape"
   xmlns:sodipodi="http://sodipodi.sourceforge.net/DTD/sodipodi-0.dtd"
   xmlns="http://www.w3.org/2000/svg"
   xmlns:svg="http://www.w3.org/2000/svg">
  <sodipodi:namedview
     id="namedview6"
     pagecolor="#ffffff"
     bordercolor="#666666"
     borderopacity="1.0"
     inkscape:showpageshadow="2"
     inkscape:pageopacity="0.0"
     inkscape:pagecheckerboard="0"
     inkscape:deskcolor="#d1d1d1"
     showgrid="false"
     inkscape:zoom="2.9602411"
     inkscape:cx="50.840454"
     inkscape:cy="57.765565"
     inkscape:window-width="1920"
     inkscape:window-height="1011"
     inkscape:window-x="0"
     inkscape:window-y="32"
     inkscape:window-maximized="1"
     inkscape:current-layer="svg2" />
  <defs
     id="defs4" />
  <path
     d="m 77.550256,53.730454 h 8.415368 c 1.170727,-0.02977 2.14539,-0.433811 2.92398,-1.212378 0.778485,-0.778513 1.182623,-1.753172 1.212383,-2.923982 -0.02985,-1.170743 -0.433898,-2.145414 -1.212383,-2.923993 -0.77859,-0.778495 -1.753253,-1.182623 -2.92398,-1.212377 h -5.990611 c 0.965708,-4.293806 2.279134,-8.257818 3.940243,-11.892051 1.661052,-3.63413 4.29382,-5.565624 7.898326,-5.794486 h 0.998444 c 0.817108,-0.02068 1.536227,0.05649 2.157317,0.231795 0.62099,0.175366 0.94786,0.573558 0.98061,1.19455 -0.22589,1.993944 -1.12923,3.319254 -2.710045,3.975906 -1.580891,0.656751 -2.484232,1.946389 -2.710024,3.868926 0.0475,1.759184 0.665578,3.233063 1.854226,4.421633 1.188564,1.188651 2.662443,1.806725 4.421633,1.85423 2.49307,-0.118818 4.353267,-1.271767 5.580527,-3.458851 1.22721,-2.186999 1.83935,-4.694962 1.83643,-7.52391 -0.0895,-3.58659 -1.30156,-6.575938 -3.63716,-8.968075 -2.335697,-2.392016 -5.259667,-3.634121 -8.771958,-3.726302 -6.623591,0.246705 -12.632009,2.891373 -18.025284,7.933982 -5.39335,5.04274 -9.369249,11.003614 -11.927705,17.882653 h -7.559579 c -1.170789,0.0298 -2.145444,0.433882 -2.92398,1.212377 -0.778547,0.778579 -1.182682,1.75325 -1.212378,2.923993 0.0298,1.17081 0.433831,2.145469 1.212378,2.923982 0.778536,0.778567 1.753191,1.182702 2.92398,1.212378 h 5.277437 l -9.413795,37.512573 c -0.745857,3.212203 -1.928529,6.094584 -3.548002,8.647142 -1.619486,2.552521 -3.907562,3.901601 -6.864228,4.047201 h -0.855804 c -0.885522,0.0237 -1.64622,-0.0595 -2.282134,-0.24959 -0.635903,-0.19018 -0.968716,-0.62998 -0.998432,-1.31935 0.225843,-1.9226 1.129185,-3.21225 2.710037,-3.868931 1.580855,-0.656727 2.484195,-1.982025 2.710026,-3.975898 -0.0386,-1.753223 -0.638884,-3.203327 -1.800748,-4.350327 -1.161854,-1.147016 -2.653563,-1.741322 -4.475109,-1.782909 -2.430714,0.109947 -4.273059,1.245058 -5.527062,3.405363 -1.253969,2.160298 -1.883918,4.68609 -1.889888,7.577385 0.08919,3.580697 1.301547,6.546237 3.63716,8.896737 2.335623,2.35051 5.259605,3.56885 8.771954,3.65505 4.705128,-0.18755 9.146132,-2.28486 13.322992,-6.29173 4.176859,-4.00698 7.814884,-8.798398 10.914097,-14.374301 3.099168,-5.575898 5.384823,-10.811063 6.856969,-15.705517 z"
     id="text2502"
     style="font-style:normal;font-variant:normal;font-weight:normal;font-stretch:normal;font-size:174.261px;font-family:Emmentaler;-inkscape-font-specification:Emmentaler;text-align:center;text-anchor:middle;fill:#ffffff;fill-opacity:1;stroke:none;stroke-width:2.45551;stroke-linecap:butt;stroke-linejoin:miter;stroke-dasharray:none;stroke-opacity:1" />
  <ellipse
     style="fill:none;fill-opacity:1;fill-rule:evenodd;stroke:#ffffff;stroke-width:3.14612;stroke-linecap:round;stroke-linejoin:round;stroke-dasharray:none;stroke-opacity:1"
     id="path285"
     cx="65.782997"
     cy="65.782997"
     rx="64.209953"
     ry="64.209946" />
</svg>
