<?xml version="1.0" encoding="UTF-8" standalone="no"?>
<!-- Created with Inkscape (http://www.inkscape.org/) -->

<svg
   version="1.0"
   width="131.56599"
   height="131.56599"
   id="svg2"
   sodipodi:docname="favicon_dark.svg"
   inkscape:version="1.2.2 (b0a8486541, 2022-12-01)"
   inkscape:export-filename="forte_512x512.png"
   inkscape:export-xdpi="373.59207"
   inkscape:export-ydpi="373.59207"
   xmlns:inkscape="http://www.inkscape.org/namespaces/inkscape"
   xmlns:sodipodi="http://sodipodi.sourceforge.net/DTD/sodipodi-0.dtd"
   xmlns="http://www.w3.org/2000/svg"
   xmlns:svg="http://www.w3.org/2000/svg">
  <sodipodi:namedview
     id="namedview6"
     pagecolor="#ffffff"
     bordercolor="#666666"
     borderopacity="1.0"
     inkscape:showpageshadow="2"
     inkscape:pageopacity="0.0"
     inkscape:pagecheckerboard="0"
     inkscape:deskcolor="#d1d1d1"
     showgrid="false"
     inkscape:zoom="2.9602411"
     inkscape:cx="3.8848187"
     inkscape:cy="57.765565"
     inkscape:window-width="1920"
     inkscape:window-height="1011"
     inkscape:window-x="0"
     inkscape:window-y="32"
     inkscape:window-maximized="1"
     inkscape:current-layer="svg2" />
  <defs
     id="defs4" />
  <path
     id="rect341"
     style="fill:#ffffff;fill-opacity:1;fill-rule:evenodd;stroke-width:34.782;stroke-linecap:round;stroke-linejoin:round"
     d="M 65.783203 0 C 29.339468 0 2.0358146e-16 29.339468 0 65.783203 C 0 102.22694 29.339468 131.56641 65.783203 131.56641 C 102.22694 131.56641 131.56641 102.22694 131.56641 65.783203 C 131.56641 29.339468 102.22694 2.0358146e-16 65.783203 0 z M 84.117188 33.283203 C 86.591066 33.348131 88.651747 34.223393 90.296875 35.908203 C 91.941933 37.593106 92.794522 39.698404 92.857422 42.224609 C 92.859462 44.21717 92.428812 45.983026 91.564453 47.523438 C 90.700004 49.063905 89.390754 49.877248 87.634766 49.960938 C 86.395687 49.927483 85.356688 49.491528 84.519531 48.654297 C 83.6823 47.817135 83.246381 46.778144 83.212891 45.539062 C 83.371922 44.184931 84.009541 43.27704 85.123047 42.814453 C 86.23648 42.351942 86.87214 41.418105 87.03125 40.013672 C 87.00818 39.576273 86.777233 39.2954 86.339844 39.171875 C 85.902364 39.048457 85.395848 38.995176 84.820312 39.009766 L 84.117188 39.009766 C 81.578354 39.170965 79.724638 40.530155 78.554688 43.089844 C 77.384678 45.649608 76.45949 48.442457 75.779297 51.466797 L 79.998047 51.466797 C 80.822652 51.487754 81.5102 51.771975 82.058594 52.320312 C 82.606924 52.868703 82.891159 53.556242 82.912109 54.380859 C 82.891146 55.205517 82.606924 55.89111 82.058594 56.439453 C 81.5102 56.987838 80.822652 57.272039 79.998047 57.292969 L 74.070312 57.292969 L 69.349609 72.664062 C 68.3127 76.111456 66.70243 79.79918 64.519531 83.726562 C 62.336608 87.653939 59.773991 91.029275 56.832031 93.851562 C 53.890058 96.67384 50.763275 98.151093 47.449219 98.283203 C 44.975304 98.222483 42.914626 97.364523 41.269531 95.708984 C 39.624448 94.053406 38.771784 91.963444 38.708984 89.441406 C 38.713181 87.404918 39.15583 85.627067 40.039062 84.105469 C 40.922317 82.58387 42.219578 81.784441 43.931641 81.707031 C 45.214647 81.736321 46.265629 82.154987 47.083984 82.962891 C 47.902347 83.77078 48.326306 84.792465 48.353516 86.027344 C 48.194449 87.431722 47.556829 88.363612 46.443359 88.826172 C 45.329889 89.288711 44.69423 90.198566 44.535156 91.552734 C 44.55609 92.038294 44.790385 92.346509 45.238281 92.480469 C 45.686185 92.614489 46.221997 92.67295 46.845703 92.65625 L 47.449219 92.65625 C 49.531747 92.55367 51.142521 91.604499 52.283203 89.806641 C 53.423879 88.008752 54.255904 85.977361 54.78125 83.714844 L 61.412109 57.292969 L 57.695312 57.292969 C 56.870666 57.272059 56.185073 56.987838 55.636719 56.439453 C 55.088345 55.89111 54.80218 55.205517 54.78125 54.380859 C 54.802171 53.556242 55.088345 52.868703 55.636719 52.320312 C 56.185073 51.771975 56.870666 51.487727 57.695312 51.466797 L 63.019531 51.466797 C 64.821576 46.62156 67.623075 42.422941 71.421875 38.871094 C 75.220623 35.319332 79.451875 33.456972 84.117188 33.283203 z " />
</svg>
